<?xml version="1.0" encoding="UTF-8"?>
<svg width="24px" height="24px" viewBox="0 0 24 24" version="1.1" xmlns="http://www.w3.org/2000/svg" xmlns:xlink="http://www.w3.org/1999/xlink">
    <!-- Generator: Sketch 61 (89581) - https://sketch.com -->
    <title>ic_arrow_down</title>
    <desc>Created with Sketch.</desc>
    <g id="Assets" stroke="none" stroke-width="1" fill="none" fill-rule="evenodd">
        <g id="Artboard" transform="translate(-323.000000, -300.000000)" fill="#212529" stroke="#F2F2F2" stroke-width="1.5">
            <g id="ic_arrow_down" transform="translate(335.500000, 312.000000) rotate(-270.000000) translate(-335.500000, -312.000000) translate(331.000000, 305.000000)">
                <path d="M11.0166195,3.91242938 L10.3748889,3.3013468 C10.1525058,3.10046796 9.89277412,3 9.59629331,3 C9.29369764,3 9.03705335,3.10046796 8.82594079,3.3013468 L4.66669664,7.26077156 L0.50748246,3.30146094 C0.296399875,3.10058209 0.0396956348,3.00011414 -0.262780134,3.00011414 C-0.559410816,3.00011414 -0.819082562,3.10058209 -1.04149562,3.30146094 L-1.67480333,3.91254351 C-1.89164108,4.11881527 -2,4.36600468 -2,4.65388347 C-2,4.94712663 -1.89152118,5.19151972 -1.6748333,5.38700565 L3.89640407,10.690464 C4.10188137,10.8967643 4.35849568,11 4.66666666,11 C4.96905251,11 5.22869428,10.8967928 5.4453222,10.690464 L11.0165896,5.38700565 C11.2277021,5.18601267 11.3333333,4.94164812 11.3333333,4.65388347 C11.3333333,4.37136906 11.2277321,4.12432232 11.0166195,3.91242938 Z" id="Arrow" transform="translate(4.666667, 7.000000) rotate(-90.000000) translate(-4.666667, -7.000000) "></path>
            </g>
        </g>
    </g>
</svg>